<svg xmlns="http://www.w3.org/2000/svg" viewBox="0 0 1200 800" preserveAspectRatio="xMidYMid slice">
    <defs>
        <linearGradient id="sky" x1="0" y1="0" x2="0" y2="1">
            <stop offset="0%" class="sky-1"/>
            <stop offset="45%" class="sky-2"/>
            <stop offset="75%" class="sky-3"/>
            <stop offset="100%" class="sky-4"/>
        </linearGradient>

        <radialGradient id="sunGlow">
            <stop offset="0%" class="sun-glow-stop" stop-opacity="0.9"/>
            <stop offset="100%" class="sun-glow-stop" stop-opacity="0"/>
        </radialGradient>

        <radialGradient id="moonGlow">
            <stop offset="0%" stop-color="#dce6fa" stop-opacity="0.45"/>
            <stop offset="100%" stop-color="#dce6fa" stop-opacity="0"/>
        </radialGradient>

        <radialGradient id="cityGlow">
            <stop offset="0%" stop-color="#ffb066" stop-opacity="0.85"/>
            <stop offset="100%" stop-color="#ffb066" stop-opacity="0"/>
        </radialGradient>

        <mask id="moonCut">
            <rect x="-40" y="-40" width="80" height="80" fill="#fff"/>
            <circle cx="11" cy="-8" r="23" fill="#000"/>
        </mask>

        <!-- Window grids. Patterns are anchored to user space, so window rects
             placed on the 20x28 (front) / 10x30 (ribbon) grid stay aligned, and
             the lit-window patterns below line up with the same cells. -->
        <pattern id="winF" width="20" height="28" patternUnits="userSpaceOnUse">
            <rect x="5" y="6" width="10" height="16" class="win-f"/>
        </pattern>
        <pattern id="winG" width="20" height="28" patternUnits="userSpaceOnUse">
            <rect x="3" y="4" width="14" height="20" class="win-g"/>
        </pattern>
        <pattern id="winR" width="10" height="30" patternUnits="userSpaceOnUse">
            <rect x="1" y="8" width="8" height="12" class="win-g"/>
        </pattern>
        <pattern id="litF" width="100" height="140" patternUnits="userSpaceOnUse">
            <rect x="5" y="34" width="10" height="16" class="win-lit"/>
            <rect x="45" y="6" width="10" height="16" class="win-lit"/>
            <rect x="65" y="62" width="10" height="16" class="win-lit"/>
            <rect x="25" y="90" width="10" height="16" class="win-lit"/>
            <rect x="85" y="34" width="10" height="16" class="win-lit"/>
            <rect x="45" y="118" width="10" height="16" class="win-lit"/>
        </pattern>
        <pattern id="litR" width="140" height="60" patternUnits="userSpaceOnUse">
            <rect x="20" y="8" width="40" height="12" class="win-lit"/>
            <rect x="90" y="38" width="50" height="12" class="win-lit"/>
        </pattern>
        <pattern id="litM" width="70" height="110" patternUnits="userSpaceOnUse">
            <rect x="18" y="5" width="6" height="10" class="win-lit-m"/>
            <rect x="46" y="27" width="6" height="10" class="win-lit-m"/>
            <rect x="4" y="49" width="6" height="10" class="win-lit-m"/>
            <rect x="32" y="71" width="6" height="10" class="win-lit-m"/>
            <rect x="60" y="93" width="6" height="10" class="win-lit-m"/>
            <rect x="18" y="93" width="6" height="10" class="win-lit-m"/>
        </pattern>

        <style>
            /* All colors come from CSS variables set on the page body
               (.time-morning / .time-day / .time-evening / .time-night in
               themes.css). Fallback values render the daytime scene when the
               SVG is viewed on its own. */
            .sky-1 { stop-color: var(--sky-1, #3f87cf); }
            .sky-2 { stop-color: var(--sky-2, #74b3e3); }
            .sky-3 { stop-color: var(--sky-3, #b2d9f0); }
            .sky-4 { stop-color: var(--sky-4, #e3f2fb); }
            .sun-glow-stop { stop-color: var(--sun-glow-color, #fff3c4); }

            .far-bldg { fill: var(--bldg-far, #a9c3d9); }
            .m-bldg { fill: var(--bldg-mid, #7592ad); }
            .f-bldg { fill: var(--bldg-front, #47627c); }
            .win-f { fill: var(--win-front, rgba(25, 40, 57, 0.45)); }
            .win-g { fill: var(--win-glass, rgba(222, 240, 250, 0.8)); }
            .win-lit { fill: #ffd87f; }
            .win-lit-m { fill: #f2c46d; }
            .lit-layer { opacity: var(--lit, 0); }
            .lit-layer-m { opacity: var(--lit-mid, 0); }

            .stars { opacity: var(--stars, 0); }
            .sun-g {
                transform: translate(var(--sun-x, 880px), var(--sun-y, 150px));
                opacity: var(--sun-op, 1);
            }
            .sun-core { fill: var(--sun-core, #fff6dc); }
            .sun-halo { opacity: var(--sun-glow, 0.45); }
            .moon-g { opacity: var(--moon-op, 0); }
            .city-glow { opacity: var(--city-glow, 0); }
            .cloud-g { opacity: var(--cloud-op, 0.75); }
            .cloud { fill: var(--cloud, #ffffff); }
            .birds { opacity: var(--birds, 0.9); }
            .bird { stroke: var(--bird, #33475c); stroke-width: 2; fill: none; stroke-linecap: round; }
            .beacon-g { opacity: var(--beacon, 0); }
            .beacon { fill: #ff5f56; animation: blink 2.4s ease-in-out infinite; }

            .sky-1, .sky-2, .sky-3, .sky-4, .sun-glow-stop { transition: stop-color 1.5s ease; }
            .far-bldg, .m-bldg, .f-bldg, .win-f, .win-g, .cloud, .sun-core { transition: fill 1.5s ease; }
            .stars, .moon-g, .lit-layer, .lit-layer-m, .beacon-g, .birds,
            .city-glow, .cloud-g, .sun-halo { transition: opacity 1.5s ease; }
            .sun-g { transition: opacity 1.5s ease, transform 2s ease; }

            @keyframes blink {
                0%, 40%, 60%, 100% { opacity: 1; }
                50% { opacity: 0.15; }
            }

            @keyframes twinkle {
                0%, 100% { opacity: 1; }
                50% { opacity: 0.25; }
            }
            .stars circle { animation: twinkle 5s ease-in-out infinite; }
            .stars circle:nth-child(2n) { animation-duration: 7s; animation-delay: -2s; }
            .stars circle:nth-child(3n) { animation-duration: 6s; animation-delay: -4s; }
            .stars circle:nth-child(5n) { animation-duration: 9s; animation-delay: -1s; }

            @keyframes drift {
                from { transform: translateX(-280px); }
                to { transform: translateX(1480px); }
            }
            .cloud-g { animation: drift linear infinite; will-change: transform; }
            .c1 { animation-duration: 170s; animation-delay: -30s; }
            .c2 { animation-duration: 215s; animation-delay: -120s; }
            .c3 { animation-duration: 145s; animation-delay: -80s; }
            .c4 { animation-duration: 195s; animation-delay: -160s; }

            @keyframes fly {
                0% { transform: translateX(-140px) translateY(0); }
                25% { transform: translateX(230px) translateY(-14px); }
                50% { transform: translateX(600px) translateY(6px); }
                75% { transform: translateX(970px) translateY(-10px); }
                100% { transform: translateX(1340px) translateY(0); }
            }
            .bird-g { animation: fly linear infinite; will-change: transform; }
            .b1 { animation-duration: 34s; }
            .b2 { animation-duration: 40s; animation-delay: -9s; }
            .b3 { animation-duration: 37s; animation-delay: -17s; }
        </style>
    </defs>

    <rect x="0" y="0" width="1200" height="800" fill="url(#sky)"/>

    <g class="stars">
        <circle cx="60" cy="60" r="1.1" fill="#fff"/>
        <circle cx="140" cy="140" r="0.8" fill="#fff"/>
        <circle cx="210" cy="40" r="1.3" fill="#fff"/>
        <circle cx="300" cy="110" r="0.7" fill="#fff"/>
        <circle cx="360" cy="190" r="1" fill="#fff"/>
        <circle cx="430" cy="70" r="0.9" fill="#fff"/>
        <circle cx="515" cy="150" r="1.2" fill="#fff"/>
        <circle cx="575" cy="45" r="0.8" fill="#fff"/>
        <circle cx="650" cy="120" r="1" fill="#fff"/>
        <circle cx="720" cy="210" r="0.7" fill="#fff"/>
        <circle cx="790" cy="60" r="1.3" fill="#fff"/>
        <circle cx="855" cy="160" r="0.9" fill="#fff"/>
        <circle cx="980" cy="100" r="1.1" fill="#fff"/>
        <circle cx="1040" cy="180" r="0.8" fill="#fff"/>
        <circle cx="1100" cy="60" r="1.2" fill="#fff"/>
        <circle cx="1160" cy="130" r="0.9" fill="#fff"/>
        <circle cx="90" cy="230" r="0.8" fill="#fff"/>
        <circle cx="250" cy="260" r="0.9" fill="#fff"/>
        <circle cx="490" cy="250" r="0.7" fill="#fff"/>
        <circle cx="690" cy="280" r="0.8" fill="#fff"/>
        <circle cx="880" cy="250" r="1" fill="#fff"/>
        <circle cx="1010" cy="270" r="0.7" fill="#fff"/>
        <circle cx="1130" cy="230" r="0.8" fill="#fff"/>
        <circle cx="40" cy="300" r="0.7" fill="#fff"/>
    </g>

    <g class="sun-g">
        <circle cx="0" cy="0" r="95" fill="url(#sunGlow)" class="sun-halo"/>
        <circle cx="0" cy="0" r="30" class="sun-core"/>
    </g>

    <g transform="translate(915, 128)" class="moon-g">
        <circle cx="0" cy="0" r="50" fill="url(#moonGlow)"/>
        <circle cx="0" cy="0" r="25" fill="#e9eef8" mask="url(#moonCut)"/>
    </g>

    <g class="clouds">
        <g class="cloud-g c1">
            <ellipse cx="0" cy="115" rx="50" ry="16" class="cloud"/>
            <ellipse cx="36" cy="108" rx="40" ry="14" class="cloud"/>
            <ellipse cx="-32" cy="120" rx="32" ry="12" class="cloud"/>
        </g>
        <g class="cloud-g c2">
            <ellipse cx="0" cy="195" rx="38" ry="13" class="cloud"/>
            <ellipse cx="26" cy="189" rx="30" ry="11" class="cloud"/>
            <ellipse cx="-24" cy="199" rx="24" ry="9" class="cloud"/>
        </g>
        <g class="cloud-g c3">
            <ellipse cx="0" cy="80" rx="55" ry="17" class="cloud"/>
            <ellipse cx="40" cy="73" rx="42" ry="15" class="cloud"/>
            <ellipse cx="-36" cy="86" rx="34" ry="12" class="cloud"/>
        </g>
        <g class="cloud-g c4">
            <ellipse cx="0" cy="255" rx="32" ry="11" class="cloud"/>
            <ellipse cx="22" cy="250" rx="26" ry="10" class="cloud"/>
            <ellipse cx="-20" cy="259" rx="22" ry="8" class="cloud"/>
        </g>
    </g>

    <g class="birds">
        <g transform="translate(0, 165)">
            <g class="bird-g b1"><path class="bird" d="M0 0 Q5 -5 10 0 Q15 -5 20 0"/></g>
        </g>
        <g transform="translate(0, 205)">
            <g class="bird-g b2"><path class="bird" d="M0 0 Q4 -4 8 0 Q12 -4 16 0"/></g>
        </g>
        <g transform="translate(0, 235)">
            <g class="bird-g b3"><path class="bird" d="M0 0 Q4.5 -4.5 9 0 Q13.5 -4.5 18 0"/></g>
        </g>
    </g>

    <!-- Distant skyline: single silhouette -->
    <path class="far-bldg" d="M0 800 V540 h30 v-50 h40 v20 h35 v-60 h30 l4 -26 l4 26 h26 v55 h45 v-30 h40 v-45 h35 v25 h40 v50 h50 v-75 h28 l3 -32 l3 32 h28 v58 h45 v-28 h45 v-42 h32 v62 h42 v-22 h38 v-52 h34 v36 h46 v30 h44 v-58 h30 v22 h36 v-44 h26 l3 -30 l3 30 h28 v66 h42 v-26 h38 v48 h46 v-60 h32 v26 h40 v-40 h38 v72 h32 V800 Z"/>

    <ellipse cx="600" cy="580" rx="720" ry="170" fill="url(#cityGlow)" class="city-glow"/>

    <!-- Middle layer -->
    <g class="buildings-mid">
        <rect x="-30" y="560" width="100" height="240" class="m-bldg"/>
        <rect x="-26" y="572" width="92" height="198" fill="url(#litM)" class="lit-layer-m"/>

        <rect x="85" y="545" width="100" height="255" class="m-bldg"/>
        <rect x="100" y="505" width="70" height="40" class="m-bldg"/>
        <rect x="88" y="550" width="84" height="220" fill="url(#litM)" class="lit-layer-m"/>
        <rect x="102" y="511" width="56" height="34" fill="url(#litM)" class="lit-layer-m"/>

        <rect x="200" y="540" width="90" height="260" class="m-bldg"/>
        <rect x="200" y="550" width="84" height="220" fill="url(#litM)" class="lit-layer-m"/>

        <rect x="300" y="490" width="80" height="310" class="m-bldg"/>
        <rect x="339" y="452" width="2.5" height="38" class="m-bldg"/>
        <rect x="312" y="506" width="56" height="264" fill="url(#litM)" class="lit-layer-m"/>

        <rect x="430" y="500" width="90" height="300" class="m-bldg"/>
        <rect x="438" y="506" width="70" height="264" fill="url(#litM)" class="lit-layer-m"/>

        <polygon points="540,505 640,505 590,470" class="m-bldg"/>
        <rect x="540" y="505" width="100" height="295" class="m-bldg"/>
        <rect x="550" y="528" width="84" height="242" fill="url(#litM)" class="lit-layer-m"/>

        <rect x="655" y="530" width="90" height="270" class="m-bldg"/>
        <rect x="662" y="550" width="70" height="220" fill="url(#litM)" class="lit-layer-m"/>

        <rect x="760" y="490" width="90" height="310" class="m-bldg"/>
        <polygon points="798,490 804,446 810,490" class="m-bldg"/>
        <rect x="774" y="506" width="70" height="264" fill="url(#litM)" class="lit-layer-m"/>

        <rect x="865" y="545" width="90" height="255" class="m-bldg"/>
        <path d="M880 545 a30 26 0 0 1 60 0 Z" class="m-bldg"/>
        <rect x="872" y="550" width="70" height="220" fill="url(#litM)" class="lit-layer-m"/>

        <rect x="1012" y="475" width="80" height="325" class="m-bldg"/>
        <rect x="1018" y="484" width="70" height="286" fill="url(#litM)" class="lit-layer-m"/>

        <rect x="1105" y="540" width="90" height="260" class="m-bldg"/>
        <rect x="1110" y="550" width="84" height="220" fill="url(#litM)" class="lit-layer-m"/>
    </g>

    <!-- Foreground layer -->
    <g class="buildings-front">
        <!-- Low-rise with water tower -->
        <g>
            <rect x="-30" y="600" width="130" height="200" class="f-bldg"/>
            <rect x="18" y="588" width="3" height="12" class="f-bldg"/>
            <rect x="39" y="588" width="3" height="12" class="f-bldg"/>
            <rect x="14" y="556" width="32" height="32" rx="1.5" class="f-bldg"/>
            <polygon points="12,556 48,556 30,541" class="f-bldg"/>
            <rect x="-20" y="616" width="100" height="140" fill="url(#winF)"/>
            <rect x="-20" y="616" width="100" height="140" fill="url(#litF)" class="lit-layer"/>
        </g>

        <!-- Art-deco stepped tower -->
        <g>
            <rect x="115" y="560" width="100" height="240" class="f-bldg"/>
            <rect x="127" y="515" width="76" height="45" class="f-bldg"/>
            <rect x="140" y="470" width="50" height="45" class="f-bldg"/>
            <rect x="153" y="440" width="24" height="30" class="f-bldg"/>
            <rect x="163.5" y="400" width="3" height="40" class="f-bldg"/>
            <g class="beacon-g"><circle cx="165" cy="397.5" r="3" class="beacon"/></g>
            <rect x="120" y="588" width="80" height="168" fill="url(#winF)"/>
            <rect x="140" y="532" width="60" height="28" fill="url(#winF)"/>
            <rect x="140" y="476" width="40" height="28" fill="url(#winF)"/>
            <rect x="120" y="588" width="80" height="168" fill="url(#litF)" class="lit-layer"/>
        </g>

        <!-- Ribbon-window office slab -->
        <g>
            <rect x="230" y="585" width="120" height="215" class="f-bldg"/>
            <rect x="250" y="570" width="22" height="15" class="f-bldg"/>
            <rect x="300" y="574" width="30" height="11" class="f-bldg"/>
            <rect x="235" y="600" width="110" height="150" fill="url(#winR)"/>
            <rect x="235" y="600" width="110" height="150" fill="url(#litR)" class="lit-layer"/>
        </g>

        <!-- Centerpiece spire tower -->
        <g>
            <rect x="365" y="480" width="80" height="320" class="f-bldg"/>
            <rect x="375" y="445" width="60" height="35" class="f-bldg"/>
            <rect x="388" y="415" width="34" height="30" class="f-bldg"/>
            <polygon points="401,415 405,350 409,415" class="f-bldg"/>
            <g class="beacon-g"><circle cx="405" cy="348" r="3" class="beacon"/></g>
            <rect x="380" y="504" width="60" height="252" fill="url(#winF)"/>
            <rect x="380" y="448" width="40" height="28" fill="url(#winF)"/>
            <rect x="380" y="504" width="60" height="252" fill="url(#litF)" class="lit-layer"/>
        </g>

        <!-- Glass curtain-wall tower -->
        <g>
            <rect x="460" y="525" width="100" height="275" class="f-bldg"/>
            <rect x="495" y="510" width="26" height="15" class="f-bldg"/>
            <rect x="460" y="532" width="100" height="224" fill="url(#winG)"/>
            <rect x="460" y="532" width="100" height="224" fill="url(#litF)" class="lit-layer"/>
        </g>

        <!-- Brick mid-rise with water tower -->
        <g>
            <rect x="575" y="605" width="90" height="195" class="f-bldg"/>
            <rect x="606" y="593" width="3" height="12" class="f-bldg"/>
            <rect x="627" y="593" width="3" height="12" class="f-bldg"/>
            <rect x="602" y="561" width="32" height="32" rx="1.5" class="f-bldg"/>
            <polygon points="600,561 636,561 618,546" class="f-bldg"/>
            <rect x="580" y="616" width="80" height="140" fill="url(#winF)"/>
            <rect x="580" y="616" width="80" height="140" fill="url(#litF)" class="lit-layer"/>
        </g>

        <!-- Twin towers on shared podium -->
        <g>
            <rect x="680" y="650" width="110" height="150" class="f-bldg"/>
            <rect x="680" y="500" width="48" height="300" class="f-bldg"/>
            <rect x="742" y="470" width="48" height="330" class="f-bldg"/>
            <rect x="764.5" y="430" width="3" height="40" class="f-bldg"/>
            <g class="beacon-g"><circle cx="766" cy="427.5" r="3" class="beacon"/></g>
            <rect x="684" y="504" width="40" height="252" fill="url(#winF)"/>
            <rect x="744" y="476" width="36" height="280" fill="url(#winF)"/>
            <rect x="684" y="504" width="40" height="252" fill="url(#litF)" class="lit-layer"/>
            <rect x="744" y="476" width="36" height="280" fill="url(#litF)" class="lit-layer"/>
        </g>

        <!-- Stepped block -->
        <g>
            <rect x="805" y="590" width="100" height="210" class="f-bldg"/>
            <rect x="825" y="555" width="60" height="35" class="f-bldg"/>
            <rect x="840" y="541" width="18" height="14" class="f-bldg"/>
            <rect x="815" y="588" width="80" height="168" fill="url(#winF)"/>
            <rect x="835" y="560" width="40" height="28" fill="url(#winF)"/>
            <rect x="815" y="588" width="80" height="168" fill="url(#litF)" class="lit-layer"/>
        </g>

        <!-- Tall tower with crown -->
        <g>
            <rect x="920" y="480" width="90" height="320" class="f-bldg"/>
            <rect x="935" y="445" width="60" height="35" class="f-bldg"/>
            <polygon points="962,445 965,407 968,445" class="f-bldg"/>
            <g class="beacon-g"><circle cx="965" cy="405" r="3" class="beacon"/></g>
            <rect x="924" y="504" width="80" height="252" fill="url(#winF)"/>
            <rect x="944" y="448" width="40" height="28" fill="url(#winF)"/>
            <rect x="924" y="504" width="80" height="252" fill="url(#litF)" class="lit-layer"/>
        </g>

        <!-- Mid block with water tower -->
        <g>
            <rect x="1025" y="575" width="100" height="225" class="f-bldg"/>
            <rect x="1058" y="563" width="3" height="12" class="f-bldg"/>
            <rect x="1079" y="563" width="3" height="12" class="f-bldg"/>
            <rect x="1054" y="531" width="32" height="32" rx="1.5" class="f-bldg"/>
            <polygon points="1052,531 1088,531 1070,516" class="f-bldg"/>
            <rect x="1035" y="588" width="80" height="168" fill="url(#winF)"/>
            <rect x="1035" y="588" width="80" height="168" fill="url(#litF)" class="lit-layer"/>
        </g>

        <!-- Edge tower with setback -->
        <g>
            <rect x="1140" y="580" width="100" height="220" class="f-bldg"/>
            <rect x="1155" y="545" width="70" height="35" class="f-bldg"/>
            <rect x="1144" y="588" width="80" height="168" fill="url(#winF)"/>
            <rect x="1164" y="560" width="40" height="28" fill="url(#winF)"/>
            <rect x="1144" y="588" width="80" height="168" fill="url(#litF)" class="lit-layer"/>
        </g>
    </g>
</svg>
